<svg version="1.1" xmlns="http://www.w3.org/2000/svg" x="0" y="0" viewBox="0 0 2484 1292" xml:space="preserve" class="header-svg__ocean" preserveAspectRatio="xMidYMid slice" width="960"><g id="ocean"><path class="dark-waves" fill="#1795BC" d="M2483.8 1124.8c-3.3 3.9-8.3 6.3-13.8 6.3s-10.5-2.4-13.8-6.3c-1.5-1.7-4.2-1.7-5.6 0-3.3 3.9-8.3 6.3-13.8 6.3s-10.5-2.4-13.8-6.3c-1.5-1.7-4.2-1.7-5.6 0-3.3 3.9-8.3 6.3-13.8 6.3s-10.5-2.4-13.8-6.3c-1.5-1.7-4.2-1.7-5.6 0-3.3 3.9-8.3 6.3-13.8 6.3s-10.5-2.4-13.8-6.3c-1.5-1.7-4.2-1.7-5.6 0-3.3 3.9-8.3 6.3-13.8 6.3s-10.5-2.4-13.8-6.3c-1.5-1.7-4.2-1.7-5.6 0-3.3 3.9-8.3 6.3-13.8 6.3s-10.5-2.4-13.8-6.3c-1.5-1.7-4.2-1.7-5.6 0-3.3 3.9-8.3 6.3-13.8 6.3s-10.5-2.4-13.8-6.3c-1.5-1.7-4.2-1.7-5.6 0-3.3 3.9-8.3 6.3-13.8 6.3s-10.5-2.4-13.8-6.3c-1.5-1.7-4.2-1.7-5.6 0-3.3 3.9-8.3 6.3-13.8 6.3s-10.5-2.4-13.8-6.3c-1.5-1.7-4.2-1.7-5.6 0-3.3 3.9-8.3 6.3-13.8 6.3s-10.5-2.4-13.8-6.3c-1.5-1.7-4.2-1.7-5.6 0-3.3 3.9-8.3 6.3-13.8 6.3s-10.5-2.4-13.8-6.3c-1.5-1.7-4.2-1.7-5.6 0-3.3 3.9-8.3 6.3-13.8 6.3s-10.5-2.4-13.8-6.3c-1.5-1.7-4.2-1.7-5.6 0-3.3 3.9-8.3 6.3-13.8 6.3s-10.5-2.4-13.8-6.3c-1.5-1.7-4.2-1.7-5.6 0-3.3 3.9-8.3 6.3-13.8 6.3s-10.5-2.4-13.8-6.3c-1.5-1.7-4.2-1.7-5.6 0-3.1 3.6-7.6 6-12.7 6.3-5.2-.2-9.9-2.6-13.1-6.3-.7-.9-1.8-1.3-2.8-1.3v-.1h-1v.2c-.7.2-1.3.6-1.8 1.1-3.3 3.9-8.3 6.3-13.8 6.3s-10.5-2.4-13.8-6.3c-1.5-1.7-4.2-1.7-5.6 0-3.3 3.9-8.3 6.3-13.8 6.3s-10.5-2.4-13.8-6.3c-1.5-1.7-4.2-1.7-5.6 0-3.3 3.9-8.3 6.3-13.8 6.3s-10.5-2.4-13.8-6.3c-1.5-1.7-4.2-1.7-5.6 0-3.3 3.9-8.3 6.3-13.8 6.3s-10.5-2.4-13.8-6.3c-1.5-1.7-4.2-1.7-5.6 0-3.3 3.9-8.3 6.3-13.8 6.3s-10.5-2.4-13.8-6.3c-1.5-1.7-4.2-1.7-5.6 0-3.3 3.9-8.3 6.3-13.8 6.3s-10.5-2.4-13.8-6.3c-1.5-1.7-4.2-1.7-5.6 0-3.3 3.9-8.3 6.3-13.8 6.3s-10.5-2.4-13.8-6.3c-1.5-1.7-4.2-1.7-5.6 0-3.3 3.9-8.3 6.3-13.8 6.3s-10.5-2.4-13.8-6.3c-1.5-1.7-4.2-1.7-5.6 0-3.3 3.9-8.3 6.3-13.8 6.3s-10.5-2.4-13.8-6.3c-1.5-1.7-4.2-1.7-5.6 0-3.3 3.9-8.3 6.3-13.8 6.3s-10.5-2.4-13.8-6.3c-1.5-1.7-4.2-1.7-5.6 0-3.3 3.9-8.3 6.3-13.8 6.3s-10.5-2.4-13.8-6.3c-1.5-1.7-4.2-1.7-5.6 0-3.3 3.9-8.3 6.3-13.8 6.3s-10.5-2.4-13.8-6.3c-1.5-1.7-4.2-1.7-5.6 0-3.3 3.9-8.3 6.3-13.8 6.3s-10.5-2.4-13.8-6.3c-1.5-1.7-4.2-1.7-5.6 0-3.3 3.9-8.3 6.3-13.8 6.3s-10.5-2.4-13.8-6.3c-1.5-1.7-4.2-1.7-5.6 0-3.1 3.6-7.7 6-12.8 6.3-5.1-.3-9.7-2.7-12.8-6.3-1.5-1.7-4.2-1.7-5.6 0-3.3 3.9-8.3 6.3-13.8 6.3s-10.5-2.4-13.8-6.3c-1.5-1.7-4.2-1.7-5.6 0-3.3 3.9-8.3 6.3-13.8 6.3s-10.5-2.4-13.8-6.3c-1.5-1.7-4.2-1.7-5.6 0-3.3 3.9-8.3 6.3-13.8 6.3s-10.5-2.4-13.8-6.3c-1.5-1.7-4.2-1.7-5.6 0-3.3 3.9-8.3 6.3-13.8 6.3s-10.5-2.4-13.8-6.3c-1.5-1.7-4.2-1.7-5.6 0-3.3 3.9-8.3 6.3-13.8 6.3s-10.5-2.4-13.8-6.3c-1.5-1.7-4.2-1.7-5.6 0-3.3 3.9-8.3 6.3-13.8 6.3s-10.5-2.4-13.8-6.3c-1.5-1.7-4.2-1.7-5.6 0-3.3 3.9-8.3 6.3-13.8 6.3s-10.5-2.4-13.8-6.3c-1.5-1.7-4.2-1.7-5.6 0-3.3 3.9-8.3 6.3-13.8 6.3s-10.5-2.4-13.8-6.3c-1.5-1.7-4.2-1.7-5.6 0-3.3 3.9-8.3 6.3-13.8 6.3s-10.5-2.4-13.8-6.3c-1.5-1.7-4.2-1.7-5.6 0-3.3 3.9-8.3 6.3-13.8 6.3s-10.5-2.4-13.8-6.3c-1.5-1.7-4.2-1.7-5.6 0-3.3 3.9-8.3 6.3-13.8 6.3s-10.5-2.4-13.8-6.3c-1.5-1.7-4.2-1.7-5.6 0-3.3 3.9-8.3 6.3-13.8 6.3s-10.5-2.4-13.8-6.3c-1.5-1.7-4.2-1.7-5.6 0-3.3 3.9-8.3 6.3-13.8 6.3s-10.5-2.4-13.8-6.3c-1.5-1.7-4.2-1.7-5.6 0-3.3 3.9-8.3 6.3-13.8 6.3s-10.5-2.4-13.8-6.3c-1.5-1.7-4.2-1.7-5.6 0-3.3 3.9-8.3 6.3-13.8 6.3h-.2c-5.5 0-10.3-2.5-13.6-6.3-1.5-1.7-4.2-1.7-5.6 0-3.3 3.9-8.3 6.3-13.8 6.3s-10.5-2.4-13.8-6.3c-1.5-1.7-4.2-1.7-5.6 0-3.3 3.9-8.3 6.3-13.8 6.3s-10.5-2.4-13.8-6.3c-1.5-1.7-4.2-1.7-5.6 0-3.3 3.9-8.3 6.3-13.8 6.3s-10.5-2.4-13.8-6.3c-1.5-1.7-4.2-1.7-5.6 0-3.3 3.9-8.3 6.3-13.8 6.3s-10.5-2.4-13.8-6.3c-1.5-1.7-4.2-1.7-5.6 0-3.3 3.9-8.3 6.3-13.8 6.3s-10.5-2.4-13.8-6.3c-1.5-1.7-4.2-1.7-5.6 0-3.3 3.9-8.3 6.3-13.8 6.3s-10.5-2.4-13.8-6.3c-1.5-1.7-4.2-1.7-5.6 0-3.3 3.9-8.3 6.3-13.8 6.3s-10.5-2.4-13.8-6.3c-1.5-1.7-4.2-1.7-5.6 0-3.3 3.9-8.3 6.3-13.8 6.3s-10.5-2.4-13.8-6.3c-1.5-1.7-4.2-1.7-5.6 0-3.3 3.9-8.3 6.3-13.8 6.3s-10.5-2.4-13.8-6.3c-1.5-1.7-4.2-1.7-5.6 0-3.3 3.9-8.3 6.3-13.8 6.3s-10.5-2.4-13.8-6.3c-1.5-1.7-4.2-1.7-5.6 0-3.3 3.9-8.3 6.3-13.8 6.3s-10.5-2.4-13.8-6.3c-1.5-1.7-4.2-1.7-5.6 0-3.3 3.9-8.3 6.3-13.8 6.3s-10.5-2.4-13.8-6.3c-1.5-1.7-4.2-1.7-5.6 0-3.3 3.9-8.3 6.3-13.8 6.3s-10.5-2.4-13.8-6.3c-1.5-1.7-4.2-1.7-5.6 0-3.3 3.9-8.3 6.3-13.8 6.3s-10.5-2.4-13.8-6.3c-1.5-1.7-4.2-1.7-5.6 0-3.3 3.9-8.3 6.3-13.8 6.3h-.2c-5.5 0-10.3-2.5-13.6-6.3-1.5-1.7-4.2-1.7-5.6 0-3.3 3.9-8.3 6.3-13.8 6.3s-10.5-2.4-13.8-6.3c-1.5-1.7-4.2-1.7-5.6 0-3.3 3.9-8.3 6.3-13.8 6.3s-10.5-2.4-13.8-6.3c-1.5-1.7-4.2-1.7-5.6 0-3.3 3.9-8.3 6.3-13.8 6.3s-10.5-2.4-13.8-6.3c-1.5-1.7-4.2-1.7-5.6 0-3.3 3.9-8.3 6.3-13.8 6.3s-10.5-2.4-13.8-6.3c-1.5-1.7-4.2-1.7-5.6 0-3.3 3.9-8.3 6.3-13.8 6.3s-10.5-2.4-13.8-6.3c-1.5-1.7-4.2-1.7-5.6 0-3.3 3.9-8.3 6.3-13.8 6.3s-10.5-2.4-13.8-6.3c-1.5-1.7-4.2-1.7-5.6 0-3.3 3.9-8.3 6.3-13.8 6.3s-10.5-2.4-13.8-6.3c-1.5-1.7-4.2-1.7-5.6 0-3.3 3.9-8.3 6.3-13.8 6.3s-10.5-2.4-13.8-6.3c-1.5-1.7-4.2-1.7-5.6 0-3.3 3.9-8.3 6.3-13.8 6.3s-10.5-2.4-13.8-6.3c-1.5-1.7-4.2-1.7-5.6 0-3.3 3.9-8.3 6.3-13.8 6.3s-10.5-2.4-13.8-6.3c-1.5-1.7-4.2-1.7-5.6 0-3.3 3.9-8.3 6.3-13.8 6.3s-10.5-2.4-13.8-6.3c-1.5-1.7-4.2-1.7-5.6 0-3.3 3.9-8.3 6.3-13.8 6.3s-10.5-2.4-13.8-6.3c-1.5-1.7-4.2-1.7-5.6 0-3.3 3.9-8.3 6.3-13.8 6.3s-10.5-2.4-13.8-6.3c-1.5-1.7-4.2-1.7-5.6 0-3.3 3.9-8.3 6.3-13.8 6.3s-10.5-2.4-13.8-6.3c-1.5-1.7-4.2-1.7-5.6 0-3.3 3.9-8.3 6.3-13.8 6.3-6.1 0-11.5-3-14.8-7.6H0v123h2484v-121.8c0 .1-.1.2-.2.2z"/><path class="light-waves" fill="#41C8F2" d="M2483.8 1146.8c-3.3 3.9-8.3 6.3-13.8 6.3s-10.5-2.4-13.8-6.3c-1.5-1.7-4.2-1.7-5.6 0-3.3 3.9-8.3 6.3-13.8 6.3s-10.5-2.4-13.8-6.3c-1.5-1.7-4.2-1.7-5.6 0-3.3 3.9-8.3 6.3-13.8 6.3s-10.5-2.4-13.8-6.3c-1.5-1.7-4.2-1.7-5.6 0-3.3 3.9-8.3 6.3-13.8 6.3s-10.5-2.4-13.8-6.3c-1.5-1.7-4.2-1.7-5.6 0-3.3 3.9-8.3 6.3-13.8 6.3s-10.5-2.4-13.8-6.3c-1.5-1.7-4.2-1.7-5.6 0-3.3 3.9-8.3 6.3-13.8 6.3s-10.5-2.4-13.8-6.3c-1.5-1.7-4.2-1.7-5.6 0-3.3 3.9-8.3 6.3-13.8 6.3s-10.5-2.4-13.8-6.3c-1.5-1.7-4.2-1.7-5.6 0-3.3 3.9-8.3 6.3-13.8 6.3s-10.5-2.4-13.8-6.3c-1.5-1.7-4.2-1.7-5.6 0-3.3 3.9-8.3 6.3-13.8 6.3s-10.5-2.4-13.8-6.3c-1.5-1.7-4.2-1.7-5.6 0-3.3 3.9-8.3 6.3-13.8 6.3s-10.5-2.4-13.8-6.3c-1.5-1.7-4.2-1.7-5.6 0-3.3 3.9-8.3 6.3-13.8 6.3s-10.5-2.4-13.8-6.3c-1.5-1.7-4.2-1.7-5.6 0-3.3 3.9-8.3 6.3-13.8 6.3s-10.5-2.4-13.8-6.3c-1.5-1.7-4.2-1.7-5.6 0-3.3 3.9-8.3 6.3-13.8 6.3s-10.5-2.4-13.8-6.3c-1.5-1.7-4.2-1.7-5.6 0-3.3 3.9-8.3 6.3-13.8 6.3s-10.5-2.4-13.8-6.3c-1.5-1.7-4.2-1.7-5.6 0-3.1 3.6-7.6 6-12.7 6.3-5.2-.2-9.9-2.6-13.1-6.3-.7-.9-1.8-1.3-2.8-1.3v-.1h-1v.2c-.7.2-1.3.6-1.8 1.1-3.3 3.9-8.3 6.3-13.8 6.3s-10.5-2.4-13.8-6.3c-1.5-1.7-4.2-1.7-5.6 0-3.3 3.9-8.3 6.3-13.8 6.3s-10.5-2.4-13.8-6.3c-1.5-1.7-4.2-1.7-5.6 0-3.3 3.9-8.3 6.3-13.8 6.3s-10.5-2.4-13.8-6.3c-1.5-1.7-4.2-1.7-5.6 0-3.3 3.9-8.3 6.3-13.8 6.3s-10.5-2.4-13.8-6.3c-1.5-1.7-4.2-1.7-5.6 0-3.3 3.9-8.3 6.3-13.8 6.3s-10.5-2.4-13.8-6.3c-1.5-1.7-4.2-1.7-5.6 0-3.3 3.9-8.3 6.3-13.8 6.3s-10.5-2.4-13.8-6.3c-1.5-1.7-4.2-1.7-5.6 0-3.3 3.9-8.3 6.3-13.8 6.3s-10.5-2.4-13.8-6.3c-1.5-1.7-4.2-1.7-5.6 0-3.3 3.9-8.3 6.3-13.8 6.3s-10.5-2.4-13.8-6.3c-1.5-1.7-4.2-1.7-5.6 0-3.3 3.9-8.3 6.3-13.8 6.3s-10.5-2.4-13.8-6.3c-1.5-1.7-4.2-1.7-5.6 0-3.3 3.9-8.3 6.3-13.8 6.3s-10.5-2.4-13.8-6.3c-1.5-1.7-4.2-1.7-5.6 0-3.3 3.9-8.3 6.3-13.8 6.3s-10.5-2.4-13.8-6.3c-1.5-1.7-4.2-1.7-5.6 0-3.3 3.9-8.3 6.3-13.8 6.3s-10.5-2.4-13.8-6.3c-1.5-1.7-4.2-1.7-5.6 0-3.3 3.9-8.3 6.3-13.8 6.3s-10.5-2.4-13.8-6.3c-1.5-1.7-4.2-1.7-5.6 0-3.3 3.9-8.3 6.3-13.8 6.3s-10.5-2.4-13.8-6.3c-1.5-1.7-4.2-1.7-5.6 0-3.1 3.6-7.7 6-12.8 6.3-5.1-.3-9.7-2.7-12.8-6.3-1.5-1.7-4.2-1.7-5.6 0-3.3 3.9-8.3 6.3-13.8 6.3s-10.5-2.4-13.8-6.3c-1.5-1.7-4.2-1.7-5.6 0-3.3 3.9-8.3 6.3-13.8 6.3s-10.5-2.4-13.8-6.3c-1.5-1.7-4.2-1.7-5.6 0-3.3 3.9-8.3 6.3-13.8 6.3s-10.5-2.4-13.8-6.3c-1.5-1.7-4.2-1.7-5.6 0-3.3 3.9-8.3 6.3-13.8 6.3s-10.5-2.4-13.8-6.3c-1.5-1.7-4.2-1.7-5.6 0-3.3 3.9-8.3 6.3-13.8 6.3s-10.5-2.4-13.8-6.3c-1.5-1.7-4.2-1.7-5.6 0-3.3 3.9-8.3 6.3-13.8 6.3s-10.5-2.4-13.8-6.3c-1.5-1.7-4.2-1.7-5.6 0-3.3 3.9-8.3 6.3-13.8 6.3s-10.5-2.4-13.8-6.3c-1.5-1.7-4.2-1.7-5.6 0-3.3 3.9-8.3 6.3-13.8 6.3s-10.5-2.4-13.8-6.3c-1.5-1.7-4.2-1.7-5.6 0-3.3 3.9-8.3 6.3-13.8 6.3s-10.5-2.4-13.8-6.3c-1.5-1.7-4.2-1.7-5.6 0-3.3 3.9-8.3 6.3-13.8 6.3s-10.5-2.4-13.8-6.3c-1.5-1.7-4.2-1.7-5.6 0-3.3 3.9-8.3 6.3-13.8 6.3s-10.5-2.4-13.8-6.3c-1.5-1.7-4.2-1.7-5.6 0-3.3 3.9-8.3 6.3-13.8 6.3s-10.5-2.4-13.8-6.3c-1.5-1.7-4.2-1.7-5.6 0-3.3 3.9-8.3 6.3-13.8 6.3s-10.5-2.4-13.8-6.3c-1.5-1.7-4.2-1.7-5.6 0-3.3 3.9-8.3 6.3-13.8 6.3s-10.5-2.4-13.8-6.3c-1.5-1.7-4.2-1.7-5.6 0-3.3 3.9-8.3 6.3-13.8 6.3h-.2c-5.5 0-10.3-2.5-13.6-6.3-1.5-1.7-4.2-1.7-5.6 0-3.3 3.9-8.3 6.3-13.8 6.3s-10.5-2.4-13.8-6.3c-1.5-1.7-4.2-1.7-5.6 0-3.3 3.9-8.3 6.3-13.8 6.3s-10.5-2.4-13.8-6.3c-1.5-1.7-4.2-1.7-5.6 0-3.3 3.9-8.3 6.3-13.8 6.3s-10.5-2.4-13.8-6.3c-1.5-1.7-4.2-1.7-5.6 0-3.3 3.9-8.3 6.3-13.8 6.3s-10.5-2.4-13.8-6.3c-1.5-1.7-4.2-1.7-5.6 0-3.3 3.9-8.3 6.3-13.8 6.3s-10.5-2.4-13.8-6.3c-1.5-1.7-4.2-1.7-5.6 0-3.3 3.9-8.3 6.3-13.8 6.3s-10.5-2.4-13.8-6.3c-1.5-1.7-4.2-1.7-5.6 0-3.3 3.9-8.3 6.3-13.8 6.3s-10.5-2.4-13.8-6.3c-1.5-1.7-4.2-1.7-5.6 0-3.3 3.9-8.3 6.3-13.8 6.3s-10.5-2.4-13.8-6.3c-1.5-1.7-4.2-1.7-5.6 0-3.3 3.9-8.3 6.3-13.8 6.3s-10.5-2.4-13.8-6.3c-1.5-1.7-4.2-1.7-5.6 0-3.3 3.9-8.3 6.3-13.8 6.3s-10.5-2.4-13.8-6.3c-1.5-1.7-4.2-1.7-5.6 0-3.3 3.9-8.3 6.3-13.8 6.3s-10.5-2.4-13.8-6.3c-1.5-1.7-4.2-1.7-5.6 0-3.3 3.9-8.3 6.3-13.8 6.3s-10.5-2.4-13.8-6.3c-1.5-1.7-4.2-1.7-5.6 0-3.3 3.9-8.3 6.3-13.8 6.3s-10.5-2.4-13.8-6.3c-1.5-1.7-4.2-1.7-5.6 0-3.3 3.9-8.3 6.3-13.8 6.3s-10.5-2.4-13.8-6.3c-1.5-1.7-4.2-1.7-5.6 0-3.3 3.9-8.3 6.3-13.8 6.3h-.2c-5.5 0-10.3-2.5-13.6-6.3-1.5-1.7-4.2-1.7-5.6 0-3.3 3.9-8.3 6.3-13.8 6.3s-10.5-2.4-13.8-6.3c-1.5-1.7-4.2-1.7-5.6 0-3.3 3.9-8.3 6.3-13.8 6.3s-10.5-2.4-13.8-6.3c-1.5-1.7-4.2-1.7-5.6 0-3.3 3.9-8.3 6.3-13.8 6.3s-10.5-2.4-13.8-6.3c-1.5-1.7-4.2-1.7-5.6 0-3.3 3.9-8.3 6.3-13.8 6.3s-10.5-2.4-13.8-6.3c-1.5-1.7-4.2-1.7-5.6 0-3.3 3.9-8.3 6.3-13.8 6.3s-10.5-2.4-13.8-6.3c-1.5-1.7-4.2-1.7-5.6 0-3.3 3.9-8.3 6.3-13.8 6.3s-10.5-2.4-13.8-6.3c-1.5-1.7-4.2-1.7-5.6 0-3.3 3.9-8.3 6.3-13.8 6.3s-10.5-2.4-13.8-6.3c-1.5-1.7-4.2-1.7-5.6 0-3.3 3.9-8.3 6.3-13.8 6.3s-10.5-2.4-13.8-6.3c-1.5-1.7-4.2-1.7-5.6 0-3.3 3.9-8.3 6.3-13.8 6.3s-10.5-2.4-13.8-6.3c-1.5-1.7-4.2-1.7-5.6 0-3.3 3.9-8.3 6.3-13.8 6.3s-10.5-2.4-13.8-6.3c-1.5-1.7-4.2-1.7-5.6 0-3.3 3.9-8.3 6.3-13.8 6.3s-10.5-2.4-13.8-6.3c-1.5-1.7-4.2-1.7-5.6 0-3.3 3.9-8.3 6.3-13.8 6.3s-10.5-2.4-13.8-6.3c-1.5-1.7-4.2-1.7-5.6 0-3.3 3.9-8.3 6.3-13.8 6.3s-10.5-2.4-13.8-6.3c-1.5-1.7-4.2-1.7-5.6 0-3.3 3.9-8.3 6.3-13.8 6.3s-10.5-2.4-13.8-6.3c-1.5-1.7-4.2-1.7-5.6 0-3.3 3.9-8.3 6.3-13.8 6.3-6.1 0-11.5-3-14.8-7.6H0v123h2484v-121.8c0 .1-.1.2-.2.2z"/><g id="small_waves" fill="none" stroke="#CBEFEF" stroke-width="4" stroke-linecap="round" stroke-miterlimit="10"><path opacity=".5" d="M-47.7 1219.8h69.9M542.9 1185.8h112M606.4 1209.8h40.2M668.7 1222.5h183.5M701.8 1192.5h29.1M728.9 1209.8h78M863.5 1192.5h87.8M931.9 1209.8h60.4M905 1222.5h14.8M996.3 1185.8h15.2M1079.3 1176.8h33.4M1057.5 1222.5h22.1M1133.8 1182.6h58.2M1137.8 1219.8h21.7M1192 1204.3h68.2M1218.2 1222.5h12.5M1244.2 1222.5h79.2M1283.8 1188.5h160.1M1360.6 1213.2h25.1M1560.3 1176.8h25.1M1578.2 1199.2h87.4M2226.2 1180.5h89.3M2270.9 1209.8h10.6M2298.9 1209.8h12M2235 1250.5h12"/><path opacity=".3" d="M562.9 1219.8h36M798.9 1182.6h40.5M1025.4 1204.3h108.4M2154.2 1195.2h31.3M2226.2 1213.2h7.3M2291.5 1222.5h84.7M2348.2 1195.2h51.5"/><path opacity=".5" d="M2399.7 1176.8h44.7M2428.9 1209.8h12.4M2466.5 1195.2h38.4M66.9 1228.5h10.2"/><path opacity=".3" d="M22.2 1188.6h19.2"/><path opacity=".5" d="M68.4 1176.8h74M445.5 1201.4H464M227.4 1227.8h37M245.9 1201.4h111.5M374.1 1182.6h44.5M447.5 1219.8h61.4M490.1 1204.3h62.2M474.9 1179.9h19.2"/><path opacity=".3" d="M81.4 1209.8h104M324.5 1219.8h104"/><path opacity=".5" d="M1477.4 1231.2h74.9M1599.5 1231.2h26.7M1736.5 1185.8h51.7M1771.4 1225.2h38.8"/><path opacity=".3" d="M1389.7 1225.2h43.8M1473 1176.8h39.9M1682 1250.5h68.2M1671.6 1228.5h28.6"/><path opacity=".5" d="M1829.7 1225.2h31.8M2052.9 1225.2h132.6"/><path opacity=".3" d="M1938.1 1217.9h37.7"/><path opacity=".5" d="M1992.7 1250.5h38.8M1838.9 1198.3h54.6M2016.2 1199.2h28.7M2064.2 1199.2h48.7M2145.5 1176.8h27.4"/></g></g><path fill="#66DFFF" d="M0 1268.5h2484v23H0z"/><g id="boat"><path fill-rule="evenodd" clip-rule="evenodd" fill="#FFF" d="M674.3 1133h-35.2l35.2-68.6v68.6z"/><path fill-rule="evenodd" clip-rule="evenodd" fill="#FFF" d="M674.2 1063.3c15.7 8.7 35.8 34.2 31.8 69.8h-30.7c3.2-18.6 6.3-47.4-1.1-69.8z"/><path fill="none" stroke="#D5ECF7" stroke-width="2.828" stroke-linecap="round" stroke-miterlimit="10" d="M674.9 1168.8v-120.7"/><path fill="#FF8150" d="M636.4 1140.9v-1.2c0-1.3-1-2.3-2.3-2.3h-38.8c-1.3 0-2.3 1-2.3 2.3v11c0 1.3 1 2.3 2.3 2.3h57.2c1.3 0 2.3-1 2.3-2.3v-5.2c0-1.3-1-2.3-2.3-2.3h-13.9c-1.2 0-2.2-1.1-2.2-2.3z"/><path fill="#FFF" d="M709.6 1155.8c1.4-2-.1-4.8-2.6-4.8H585.8c-1.7 0-3.1 1.4-3.1 3.1v9.4h120.2c2.4-2.2 4.7-4.7 6.7-7.7z"/><path fill="#FF8150" d="M675.8 1179.7s14.8-4.8 27.1-16.2H582.7c0 6.7 5.7 16.2 12.4 16.2h80.7z"/><circle fill="#B3D5E2" cx="696.3" cy="1157.1" r="2.2"/><circle fill="#B3D5E2" cx="688.5" cy="1157.1" r="2.2"/><path fill="#FFF" d="M610.7 1146.5h-9.1c-1.4 0-2.6-1.1-2.6-2.6 0-1.4 1.1-2.6 2.6-2.6h9.1c1.4 0 2.6 1.1 2.6 2.6s-1.2 2.6-2.6 2.6zM628.7 1146.5h-9.5c-1.4 0-2.6-1.1-2.6-2.6 0-1.4 1.1-2.6 2.6-2.6h9.5c1.4 0 2.6 1.1 2.6 2.6s-1.1 2.6-2.6 2.6z"/><path fill-rule="evenodd" clip-rule="evenodd" fill="#FF8150" d="M673.4 1064.4l-12.8-5.3 12.8-5.4v10.7z"/><circle fill="#D5ECF7" cx="674.9" cy="1046.8" r="2.8"/><path fill="#41C8F2" d="M566 1190.5c29.3 2.4 58.8-.6 88.2-.9 18.2-.2 36.3-.2 54.5-.1-.2-3.4-.4-6.7-.8-10.1-1.1.3-2.3.5-3.5.5-3.9 0-7.4-1.7-9.8-4.5-1-1.2-2.9-1.2-4 0-2.4 2.7-5.9 4.5-9.8 4.5-3.9 0-7.4-1.7-9.8-4.5-1-1.2-2.9-1.2-4 0-2.4 2.7-5.8 4.5-9.8 4.5-3.9 0-7.4-1.7-9.8-4.5-1-1.2-2.9-1.2-4 0-2.4 2.7-5.9 4.5-9.8 4.5-3.9 0-7.4-1.7-9.8-4.5-1-1.2-2.9-1.2-4 0-2.4 2.7-5.9 4.5-9.8 4.5s-7.4-1.7-9.8-4.5c-1-1.2-2.9-1.2-4 0-2.4 2.7-5.9 4.5-9.8 4.5-3.9 0-7.4-1.7-9.8-4.5-1-1.2-2.9-1.2-4 0-2 2.4-4.9 4-8.1 4.4.1.8.1 1.7.1 2.5.9 2.7 1.2 5.5 1.4 8.2z"/></g></svg>