<svg version="1.1" xmlns="http://www.w3.org/2000/svg" x="0" y="0" viewBox="0 0 2484 1292" xml:space="preserve" class="header-svg__sky" preserveAspectRatio="xMidYMid slice" width="960"><g id="background"><linearGradient id="BG_2_" gradientUnits="userSpaceOnUse" x1="1242" y1="1346.264" x2="1242" y2="-128.635"><stop offset=".304" stop-color="#ebf7f7"/><stop offset=".818" stop-color="#41c8f2"/></linearGradient><path id="BG_1_" fill="url(#BG_2_)" d="M2484 0H0v1292h2484V919.2z"/><g id="sun" fill="#FF8150"><circle opacity=".5" cx="1242.5" cy="1023.1" r="108.5"/><circle cx="1242.5" cy="1023.1" r="78.9"/></g><g id="bridge" opacity=".36"><path fill="#CCE4EA" d="M848.6 875.6h8v156.7h-8zM819.5 875.6h8v156.7h-8zM790.4 875.6h8v156.7h-8zM761.3 872h8v160.3h-8zM732.2 870.8h8v161.5h-8zM703.1 863.4h8v168.9h-8zM674 857.6h8v174.7h-8zM644.9 850.8h8v181.5h-8zM615.8 841.7h8v190.6h-8zM586.7 833.4h8v198.9h-8zM557.6 822.7h8v209.6h-8zM528.5 810.5h8v221.8h-8zM499.4 796.7h8v235.6h-8zM881.1 875.6h8v156.7h-8zM910.3 875.6h8v156.7h-8zM939.4 872.4h8v159.9h-8zM968.5 867.3h8v165h-8zM997.6 862.5h8v169.8h-8zM1026.7 856.6h8v175.7h-8zM1055.8 849.6h8v182.7h-8zM1084.9 841.7h8v190.6h-8zM1114 831.8h8v200.5h-8zM1143.1 820.8h8v211.5h-8zM1172.2 808.4h8v223.9h-8zM1201.3 794.3h8v238h-8z"/><path fill="#CCE4EA" d="M844.7 879.4c-31.3 0-63.1-1.9-97-5.8-107.3-13.7-204.4-46.2-288.8-96.8l4.1-6.9c83.4 50 179.5 82.2 285.6 95.7 35.9 4.1 69.5 6 102.6 5.7h1.3c33.2.3 66.8-1.6 102.7-5.7 106.1-13.5 202.2-45.7 285.6-95.7l4.1 6.9c-84.3 50.6-181.5 83.1-288.7 96.8-36.3 4.2-70.2 6-103.7 5.7h-1.2c-2.1 0-4.4.1-6.6.1zM1623.8 875.1h8v156.7h-8zM1594.7 875.1h8v156.7h-8zM1565.6 875.1h8v156.7h-8zM1536.5 871.5h8v160.3h-8zM1507.4 870.3h8v161.5h-8zM1478.3 862.9h8v168.9h-8zM1449.2 857.2h8v174.7h-8zM1420.1 850.3h8v181.5h-8zM1390.9 841.2h8v190.6h-8zM1361.8 832.9h8v198.9h-8zM1332.7 822.2h8v209.6h-8zM1303.6 810h8v221.8h-8zM1274.5 796.2h8v235.6h-8zM1656.3 875.1h8v156.7h-8zM1685.4 875.1h8v156.7h-8zM1714.5 871.9h8v159.9h-8zM1743.6 866.8h8v165h-8zM1772.7 862h8v169.8h-8zM1801.8 856.1h8v175.7h-8zM1830.9 849.1h8v182.7h-8zM1860.1 841.2h8v190.6h-8zM1889.2 831.3h8v200.5h-8zM1918.3 820.3h8v211.5h-8zM1947.4 807.9h8v223.9h-8zM1976.5 793.8h8v238h-8z"/><path fill="#CCE4EA" d="M1619.9 878.9c-31.3 0-63.1-1.9-97-5.8-107.3-13.7-204.4-46.2-288.8-96.8l4.1-6.9c83.4 50 179.5 82.2 285.6 95.7 35.9 4.1 69.5 6 102.6 5.7h1.3c33.2.3 66.8-1.6 102.7-5.7 106.1-13.5 202.2-45.7 285.6-95.7l4.1 6.9c-84.3 50.6-181.5 83.1-288.7 96.8-36.3 4.2-70.2 6-103.7 5.7h-1.2c-2.2.1-4.4.1-6.6.1zM465.1 1028h1549.8v8H465.1z"/><path fill="#CCE4EA" d="M1234 733.3h16.5v391.5H1234z"/><path fill="#CCE4EA" d="M1224.2 753.3h36v8h-36zM2006.6 733.3h16.5v391.5h-16.5z"/><path fill="#CCE4EA" d="M1996.9 753.3h36v8h-36zM456.8 733.8h16.5v391.5h-16.5z"/><path fill="#CCE4EA" d="M447.1 753.8h36v8h-36z"/></g><g id="clouds"><path opacity=".62" fill="#FFF" d="M1139.2 862.2c0-7.2-5.8-13.1-13.1-13.1h-.6c-1.5-11.2-11.1-19.9-22.7-19.9-2.9 0-5.6.5-8.1 1.5-4.4-13.7-17.2-23.5-32.3-23.5-13.7 0-25.5 8.1-30.8 19.8-1.1-.2-2.3-.2-3.4-.2-13.4 0-24.2 10.8-24.2 24.2s10.8 24.2 24.2 24.2h99v-.1c6.7-.4 12-6.1 12-12.9z"/><path opacity=".61" fill="#FFF" d="M1495.2 879.4c0-8.5-6.9-15.4-15.4-15.4h-.7c-1.7-13.2-13-23.4-26.7-23.4-3.4 0-6.6.6-9.6 1.7-5.2-16.1-20.3-27.7-38.1-27.7-16.1 0-30 9.6-36.4 23.3-1.3-.2-2.7-.3-4-.3-15.8 0-28.6 12.8-28.6 28.6s12.8 28.6 28.6 28.6h116.6v-.1c8.1-.6 14.3-7.2 14.3-15.3z"/><path opacity=".85" fill="#FFF" d="M1515.3 1106c0-13.6-11.1-24.7-24.7-24.7h-1.1c-2.8-21.2-20.9-37.6-42.9-37.6-5.4 0-10.6 1-15.3 2.8-8.3-25.8-32.5-44.5-61.2-44.5-25.9 0-48.2 15.3-58.4 37.4-2.1-.3-4.3-.5-6.5-.5-25.3 0-45.9 20.5-45.9 45.9s20.5 45.9 45.9 45.9h187.2v-.1c12.8-1 22.9-11.6 22.9-24.6z"/><path opacity=".7" fill="#FFF" d="M1313.4 1108.2c0-17.4-14.1-31.5-31.5-31.5h-1.4c-3.6-27.1-26.7-47.9-54.7-47.9-6.9 0-13.5 1.3-19.6 3.6-10.6-33-41.5-56.8-78-56.8-33 0-61.5 19.6-74.5 47.8-2.7-.4-5.4-.6-8.2-.6-32.3 0-58.5 26.2-58.5 58.5s26.2 58.5 58.5 58.5H1284.4v-.1c16.2-1.3 29-14.9 29-31.5z"/><path opacity=".5" fill="#FFF" d="M2269.7 544c-9.1 0-16.5 7.4-16.5 16.5 0 .3 0 .7.1 1h-9.7c2.2-4.1 3.4-8.7 3.4-13.7 0-16-12.9-28.9-28.9-28.9-3.6 0-7.1.7-10.2 1.9-5.6-17.2-21.7-29.7-40.8-29.7-17.3 0-32.2 10.2-39 25-1.4-.2-2.8-.3-4.3-.3-16.9 0-30.6 13.7-30.6 30.6s13.7 30.6 30.6 30.6h145.9c9.1 0 16.5-7.4 16.5-16.5s-7.4-16.5-16.5-16.5z"/><g opacity=".5"><path fill="none" d="M153 741.1c-.1-.2-.3-.3-.4-.5-.1.2-.3.3-.4.5h.8z"/><path fill="#FFF" d="M231.6 728.2c-6.7 0-12.2 5.4-12.2 12.2v.8h-16.2c5.4-6 8.7-13.9 8.7-22.6 0-18.7-15.2-33.9-33.9-33.9-11.3 0-21.4 5.6-27.5 14.1-5.7-5.9-13.8-9.6-22.7-9.6-12.8 0-23.7 7.6-28.7 18.4-1-.1-2.1-.2-3.2-.2-12.5 0-22.6 10.1-22.6 22.6 0 12.5 10.1 22.6 22.6 22.6H231.6c6.7 0 12.2-5.4 12.2-12.2s-5.5-12.2-12.2-12.2zM153 741.1h-.8c.1-.2.3-.3.4-.5.1.2.2.4.4.5z"/></g></g><g id="buildings"><g id="building6"><path opacity=".59" fill="#BDDDE1" d="M2337.5 731.4v-18.8h-102.3v18.8h-36.3V1146h165.5V731.4z"/><path opacity=".58" fill="none" stroke="#FFF" stroke-width="4" stroke-linecap="round" stroke-miterlimit="10" d="M2211.3 743.9v126.6"/></g><path id="building5_1_" fill="#BDDDE1" d="M2157.1 637.9v-20.7h-23.3v-20h-94v20h-23.2v20.7H1996v458.5h183V637.9z"/><g id="building4_2_" opacity=".1"><linearGradient id="SVGID_1_" gradientUnits="userSpaceOnUse" x1="1829.914" y1="1060.025" x2="1829.414" y2="764.025"><stop offset="0" stop-color="#fff"/><stop offset="1" stop-color="#000"/></linearGradient><path fill="url(#SVGID_1_)" d="M1760.2 736.7H1899v347.8h-138.8z"/></g><g id="building3_2_"><linearGradient id="SVGID_2_" gradientUnits="userSpaceOnUse" x1="1543.324" y1="1081.635" x2="1543.786" y2="739.57"><stop offset="0" stop-color="#fff"/><stop offset="1" stop-color="#000"/></linearGradient><path opacity=".1" fill="url(#SVGID_2_)" d="M1593.6 704.1l-21.6-.1v-8.6h-9.9v-9.9h-9.9v-9.9h-6.3l-2.4-64.4-2.5 64.4h-6.2v9.9h-9.9v9.9h-9.9v8.3l-21.6-.1-20.4 92.8v332.1h141V797.1z"/></g><g id="building2_2_"><path fill="#BDDDE1" d="M814.7 729.7h149.4v389H814.7z"/><path fill="#A7CFD6" d="M965 729.7H814.7l75.2-75.2z"/><path opacity=".5" fill="none" stroke="#FFF" stroke-width="4" stroke-linecap="round" stroke-miterlimit="10" d="M956.4 738.1V773M892.9 670.6l48.3 47.1"/></g><g id="building1"><linearGradient id="SVGID_3_" gradientUnits="userSpaceOnUse" x1="357.472" y1="1073.172" x2="357.288" y2="692.586"><stop offset="0" stop-color="#fff"/><stop offset="1" stop-color="#000"/></linearGradient><path opacity=".1" fill="url(#SVGID_3_)" d="M388.2 716.3v-39h-26.9l-4-59.7-4.1 59.7h-26.9v39h-53.1v386.5h168.4V716.3z"/><path opacity=".51" fill="none" stroke="#FFF" stroke-width="4" stroke-linecap="round" stroke-miterlimit="10" d="M430.4 727.9v115.4"/><path opacity=".5" fill="none" stroke="#FFF" stroke-width="4" stroke-linecap="round" stroke-miterlimit="10" d="M378.7 683.2v30.6"/></g></g></g><g id="middleground"><g id="buildings_2_"><g id="building1_1_"><path fill="#A7CFD6" d="M190.6 793h183v314.6h-183z"/><g opacity=".74" fill="#FFF"><path d="M275.7 910.7h12.1v16.5h-12.1zM250.7 910.7h12.1v16.5h-12.1zM326.5 910.7h12.1v16.5h-12.1z"/></g><g opacity=".74" fill="#FFF"><path d="M225.6 830.3h12.1v16.5h-12.1zM250.7 830.3h12.1v16.5h-12.1zM301.2 830.3h12.1v16.5h-12.1zM326.5 830.3h12.1v16.5h-12.1z"/></g><g opacity=".74" fill="#FFF"><path d="M225.6 870.1h12.1v16.5h-12.1zM275.7 870.1h12.1v16.5h-12.1zM301.2 870.1h12.1v16.5h-12.1z"/></g><path opacity=".4" fill="none" stroke="#FFF" stroke-width="4" stroke-linecap="round" stroke-miterlimit="10" d="M361.7 808.2v88.7"/></g><g id="building2"><path fill="#A7CFD6" d="M618.6 669.3v-20.8h-23.2v-20h-94v20h-23.3v20.8h-20.5v458.4h183V669.3z"/><path opacity=".5" fill="none" stroke="#FFF" stroke-width="4" stroke-linecap="round" stroke-miterlimit="10" d="M631.8 679.7v51M609.9 654.8v13M586.5 635.4v12"/></g><g id="building3_1_"><path fill="#A7CFD6" d="M859.6 780.5h183V1120h-183z"/><g opacity=".74" fill="#FFF"><path d="M883.8 806.4h12.1v33h-12.1zM933.9 806.4H946v33h-12.1zM908.9 806.4H921v33h-12.1zM959.4 806.4h12.1v33h-12.1zM984.7 806.4h12.1v33h-12.1zM1008.4 806.4h12.1v33h-12.1z"/></g><path opacity=".4" fill="none" stroke="#FFF" stroke-width="4" stroke-linecap="round" stroke-miterlimit="10" d="M1032.6 876.7v186.8"/></g><g id="building4_1_"><path fill="#A7CFD6" d="M1809.1 630.9v-20.7h-140.6v20.7H1648v458.4h183V630.9z"/><path opacity=".5" fill="none" stroke="#FFF" stroke-width="4" stroke-linecap="round" stroke-miterlimit="10" d="M1657.6 644.8v186.8M1679.2 619v9"/></g><g id="building5"><path fill="#A7CFD6" d="M1873.2 708.5h183v374.8h-183z"/><g opacity=".74" fill="#FFF"><path d="M1958.9 826.2h12.1v16.5h-12.1zM1983.9 826.2h12.1v16.5h-12.1zM1908.2 826.2h12.1v16.5h-12.1z"/></g><g opacity=".74" fill="#FFF"><path d="M2009 745.9h12.1v16.5H2009zM1983.9 745.9h12.1v16.5h-12.1zM1933.4 745.9h12.1v16.5h-12.1zM1908.2 785.7h12.1v16.5h-12.1z"/></g><g opacity=".74" fill="#FFF"><path d="M2009 785.7h12.1v16.5H2009zM1958.9 785.7h12.1v16.5h-12.1zM1933.4 785.7h12.1v16.5h-12.1z"/></g><path opacity=".5" fill="none" stroke="#FFF" stroke-width="4" stroke-linecap="round" stroke-miterlimit="10" d="M1881.7 723.1v280.1"/></g><g id="building7"><path fill="#A7CFD6" d="M2126.2 879.2h155.4v203.5h-155.4z"/><g opacity=".74" fill="#FFF"><path d="M2161.2 916.5h12.1V933h-12.1zM2186.4 916.5h12.1V933h-12.1zM2236.9 916.5h12.1V933h-12.1z"/></g><g opacity=".74" fill="#FFF"><path d="M2161.2 956.3h12.1v16.5h-12.1zM2211.4 956.3h12.1v16.5h-12.1z"/></g><path opacity=".29" fill="none" stroke="#FFF" stroke-width="4" stroke-linecap="round" stroke-miterlimit="10" d="M2138.3 892.7v186.9"/></g></g></g><g id="foreground"><g id="tree" opacity=".65" fill-rule="evenodd" clip-rule="evenodd" fill="#BDDDE1"><path d="M2436.4 1094.7c-2.1-.4-4.2-.9-6.3-1.4v-31.7h6.3v33.1zM2433.3 1039.4l-12.6 11.1-12.6 11.1h50.4l-12.6-11.1zM2453.6 1038.9c-3.4-3-6.8-6-10.1-9-3.4-3-6.7-6-10.1-9-3.4 3-6.7 6-10.1 9-3.4 3-6.8 6-10.1 9H2453.6zM2448.7 1020.6l-7.7-6.7-7.7-6.8-7.7 6.8-7.6 6.7h15.3z"/></g><g id="tree_1_" opacity=".65" fill-rule="evenodd" clip-rule="evenodd" fill="#BDDDE1"><path d="M129.3 1082.6c-2.1-.4-4.2-.9-6.3-1.4v-31.7h6.3v33.1zM126.2 1027.3l-12.6 11.1-12.6 11.1h50.4l-12.6-11.1zM146.5 1026.9c-3.4-3-6.8-6-10.1-9-3.4-3-6.7-6-10.1-9-3.4 3-6.7 6-10.1 9-3.4 3-6.8 6-10.1 9H146.5zM141.5 1008.6l-7.7-6.8-7.6-6.8-7.7 6.8-7.7 6.8h15.4z"/></g><g id="tree_2_" opacity=".39" fill-rule="evenodd" clip-rule="evenodd" fill="#BDDDE1"><path d="M64.9 1087.3c-2.1-.4-4.2-.9-6.3-1.4v-31.7h6.3v33.1zM61.8 1032l-12.6 11.1-12.6 11.1H87l-12.6-11.1zM82.1 1031.6c-3.4-3-6.8-6-10.1-9-3.4-3-6.7-6-10.1-9-3.4 3-6.7 6-10.1 9-3.4 3-6.8 6-10.1 9H82.1zM77.1 1013.3l-7.6-6.8-7.7-6.8-7.7 6.8-7.7 6.8h15.4z"/></g><path id="ground" fill="#8AB3C1" d="M0 1080h2484v56H0z"/><g id="buildings_1_"><g id="building4"><path fill="#7DA7B2" d="M2004 631.7h72.7v266H2004z"/><path fill="#8AB3C1" d="M2039.5 492.1l-63.5 588.3h128l-49.6-459-14-129.3c0-.6-.8-.6-.9 0z"/><path opacity=".51" fill="none" stroke="#FFF" stroke-width="4" stroke-linecap="round" stroke-linejoin="round" stroke-miterlimit="10" d="M2030.9 667.7l-41.9 391.7"/></g><g id="building3"><path fill="#8AB3C1" d="M1556.5 832.6h183v262.9h-183z"/><g opacity=".74" fill="#FFF"><path d="M1642.3 950.3h12.1v16.5h-12.1zM1667.3 950.3h12.1v16.5h-12.1zM1591.5 950.3h12.1v16.5h-12.1z"/></g><g opacity=".74" fill="#FFF"><path d="M1692.4 869.9h12.1v16.5h-12.1zM1667.3 869.9h12.1v16.5h-12.1zM1616.8 869.9h12.1v16.5h-12.1zM1591.5 869.9h12.1v16.5h-12.1z"/></g><g opacity=".74" fill="#FFF"><path d="M1692.4 909.7h12.1v16.5h-12.1zM1616.8 909.7h12.1v16.5h-12.1zM1591.3 909.7h12.1v16.5h-12.1z"/></g><path opacity=".4" fill="none" stroke="#FFF" stroke-width="4" stroke-linecap="round" stroke-miterlimit="10" d="M1566.9 843.9v186.8"/></g><g id="building2_1_"><g fill="#8AB3C1"><path d="M620.8 763.3h168.4v332H620.8z"/><path d="M673.9 724.3h61.9v40h-61.9z"/><path d="M700.4 730.3l4.5-65.6 4.5 65.6z"/></g><g opacity=".74" fill="#FFF"><path d="M649 796.2h12.1v16.5H649zM699.1 796.2h12.1v16.5h-12.1zM674.1 796.2h12.1v16.5h-12.1zM724.6 796.2h12.1v16.5h-12.1zM749.9 796.2H762v16.5h-12.1z"/></g><g opacity=".74" fill="#FFF"><path d="M649 841.5h12.1V858H649zM699.1 841.5h12.1V858h-12.1zM674.1 841.5h12.1V858h-12.1zM724.6 841.5h12.1V858h-12.1zM749.9 841.5H762V858h-12.1z"/></g><path opacity=".4" fill="none" stroke="#FFF" stroke-width="4" stroke-linecap="round" stroke-miterlimit="10" d="M777.9 775.2v170"/></g><g id="building1_2_"><path fill="#8AB3C1" d="M408.9 880.1h112.3v217.8H408.9z"/><path opacity=".4" fill="none" stroke="#FFF" stroke-width="4" stroke-linecap="round" stroke-miterlimit="10" d="M510 895.9V1066"/></g></g><g id="clouds_1_" fill="#FFF"><path opacity=".7" d="M708.2 414.5c-1.6 0-3.1.1-4.6.3-7.3-15.8-23.2-26.7-41.7-26.7-20.4 0-37.7 13.4-43.7 31.8-3.4-1.3-7.1-2-11-2-17.1 0-30.9 13.8-30.9 30.9 0 5.3 1.3 10.3 3.7 14.7h-10.4c0-.4.1-.7.1-1.1 0-9.7-7.9-17.6-17.6-17.6s-17.6 7.9-17.6 17.6c0 9.7 7.9 17.6 17.6 17.6h156.1c18.1 0 32.8-14.7 32.8-32.8-.1-18-14.8-32.7-32.8-32.7zM1884.3 372.8c0-7.2-5.8-13.1-13.1-13.1h-.6c-1.5-11.2-11.1-19.9-22.7-19.9-2.9 0-5.6.5-8.1 1.5-4.4-13.7-17.2-23.5-32.3-23.5-13.7 0-25.5 8.1-30.8 19.8-1.1-.2-2.3-.2-3.4-.2-13.4 0-24.2 10.8-24.2 24.2s10.8 24.2 24.2 24.2h99v-.1c6.7-.4 12-6 12-12.9z"/><path opacity=".75" d="M777.9 497.9c0-7.2-5.8-13.1-13.1-13.1h-.6c-1.5-11.2-11.1-19.9-22.7-19.9-2.9 0-5.6.5-8.1 1.5-4.4-13.7-17.2-23.5-32.3-23.5-13.7 0-25.5 8.1-30.8 19.8-1.1-.2-2.3-.2-3.4-.2-13.4 0-24.2 10.8-24.2 24.2s10.8 24.2 24.2 24.2h99v-.1c6.7-.4 12-6 12-12.9z"/></g></g></svg>