<svg version="1.1" id="Layer_1" xmlns="http://www.w3.org/2000/svg" x="0" y="0" viewBox="0 0 1601.4 230.2" xml:space="preserve"><g opacity=".22" fill="#FFF"><circle cx="127.5" cy="81.6" r="45.9"/><circle cx="173.8" cy="94.9" r="32.8"/><circle cx="72.8" cy="96.5" r="30.9"/><circle cx="17.6" cy="110" r="17.6"/><path d="M18.3 111.1h155.1v16.5H18.3z"/></g><g opacity=".25" fill="#FFF"><circle cx="1482.3" cy="187.1" r="42.9"/><circle cx="1439.1" cy="199.6" r="30.6"/><circle cx="1533.4" cy="201" r="28.9"/><circle cx="1584.9" cy="213.7" r="16.5"/><path d="M1439.4 214.7h145v15.5h-145z"/></g><g opacity=".15" fill="#FFF"><circle cx="1239.7" cy="33.9" r="33.9"/><circle cx="1205.4" cy="43.8" r="24.2"/><circle cx="1280.1" cy="44.9" r="22.9"/><circle cx="1303.3" cy="54.9" r="13.1"/><path d="M1205.7 55.8h98.7V68h-98.7z"/></g><g opacity=".22" fill="#FFF"><circle cx="135.3" cy="126.1" r="33.9"/><circle cx="101" cy="135.9" r="24.2"/><circle cx="175.7" cy="137" r="22.9"/><circle cx="198.9" cy="147.1" r="13.1"/><path d="M101.3 147.9H200v12.2h-98.7z"/></g></svg>