<svg version="1.1" id="Layer_1" xmlns="http://www.w3.org/2000/svg" x="0" y="0" viewBox="0 0 499.4 100" width="336" height="68" xml:space="preserve"><path fill="#FFF" d="M142.2 23.6h-19.7v51.5h8.8V57.5h9.9c11 0 20-5.9 20-17.1v-.1c0-10-7.4-16.7-19-16.7zm10 17.1c0 5.2-4.1 8.9-10.8 8.9h-10.2v-18h10.2c6.6 0 10.8 3.1 10.8 8.9v.2zM174.1 49.5v-.1c0-14.1 10.8-25.8 26.2-25.8 15.3 0 26 11.6 26 25.7v.1c0 14.1-10.8 25.8-26.2 25.8-15.3-.1-26-11.7-26-25.7zm43 0v-.1c0-9.7-7.1-17.8-17-17.8s-16.8 7.9-16.8 17.6v.1c0 9.7 7.1 17.8 17 17.8s16.8-7.9 16.8-17.6zM302 31.6h-15.8v-8.1h40.5v8.1h-15.8v43.5H302V31.6zM394.2 49.5v-.1c0-14.1 10.8-25.8 26.2-25.8 15.3 0 26 11.6 26 25.7v.1c0 14.1-10.8 25.8-26.2 25.8-15.3-.1-26-11.7-26-25.7zm43.1 0v-.1c0-9.7-7.1-17.8-17-17.8s-16.8 7.9-16.8 17.6v.1c0 9.7 7.1 17.8 17 17.8 9.8 0 16.8-7.9 16.8-17.6zM470 48.9l-18-25.3h10.7l12.8 18.5 12.9-18.5h10.4l-18 25.2 18.7 26.3h-10.7l-13.5-19.5-13.6 19.5h-10.4L470 48.9zM237.2 67l5.3-6.3c4.8 4.1 9.6 6.5 15.8 6.5 5.4 0 8.8-2.5 8.8-6.3v-.1c0-3.6-2-5.5-11.3-7.6-10.6-2.6-16.6-5.7-16.6-14.9v-.1c0-8.6 7.1-14.5 17.1-14.5 7.3 0 13.1 2.2 18.1 6.3l-4.7 6.6c-4.5-3.4-9-5.1-13.6-5.1-5.1 0-8.1 2.6-8.1 5.9v.1c0 3.9 2.3 5.6 11.8 7.8 10.6 2.6 16.1 6.3 16.1 14.6v.1c0 9.3-7.3 14.9-17.8 14.9-7.7.1-14.9-2.5-20.9-7.9zM373.1 48.4c3.8-2 7.4-5.3 7.4-11.5v-.1c0-3.5-1.2-6.3-3.5-8.5-2.9-2.9-7.6-4.6-13.5-4.6h-23.1v51.5h23.8c11.5 0 19.1-4.9 19.1-14.1V61c0-7.1-4.2-10.6-10.2-12.6zm-23.8-16.7h13c5.8 0 9.1 2.5 9.1 6.5v.1c0 4.7-3.9 7-9.7 7h-12.4V31.7zm25 28.4c0 4.6-3.8 7.1-9.9 7.1h-15V53h14.3c7.1 0 10.6 2.6 10.6 6.9v.2z"/><g fill="#FFF"><path d="M48 86.7V29.3v-.7c-.1 1.3 0 2.1 0 2.1V100 86.7zM48 29.3V100l8-2.3v-9.2l24-6.1v8.9l8-2.3V29.3C88 14.3 79 0 68 0c-8 0-14.9 8.1-18.1 17.9-1.3 4.4-1.7 8.4-1.9 10.8v.6z"/><path d="M8.1 77.2V31.4c0-12.5 11.8-23.2 25.2-23.2H47c1.6-2.9 3.9-5.7 6.4-8.3H33.3C15.2 0 0 14.2 0 31.4v61.2l8.1 1v-8.2l32.7 3.4v-8.3L8.1 77.2z"/><path d="M16.3 29.9l24.5.8c0-1.2-.4-8.5 2.5-15.5H32c-8 .1-15.7 6.7-15.7 14.7z"/></g></svg>